
<svg
   xmlns:dc="http://purl.org/dc/elements/1.1/"
   xmlns:cc="http://creativecommons.org/ns#"
   xmlns:rdf="http://www.w3.org/1999/02/22-rdf-syntax-ns#"
   xmlns:svg="http://www.w3.org/2000/svg"
   xmlns="http://www.w3.org/2000/svg"
   xmlns:xlink="http://www.w3.org/1999/xlink"
   xmlns:sodipodi="http://sodipodi.sourceforge.net/DTD/sodipodi-0.dtd"
   xmlns:inkscape="http://www.inkscape.org/namespaces/inkscape"
   version="1.1"
   x="0px"
   y="0px"
   width="147.59px"
   height="40px"
   viewBox="0 0 147.59 40"
   enable-background="new 0 0 147.59 40"
   xml:space="preserve"
   id="svg3821"
   sodipodi:docname="spotalyzer_logo2.svg"
   inkscape:version="0.92.2 (5c3e80d, 2017-08-06)"><metadata
     id="metadata3827"><rdf:RDF><cc:Work
         rdf:about=""><dc:format>image/svg+xml</dc:format><dc:type
           rdf:resource="http://purl.org/dc/dcmitype/StillImage" /><dc:title></dc:title></cc:Work></rdf:RDF></metadata><defs
     id="defs3825" /><sodipodi:namedview
     pagecolor="#ffffff"
     bordercolor="#666666"
     borderopacity="1"
     objecttolerance="10"
     gridtolerance="10"
     guidetolerance="10"
     inkscape:pageopacity="0"
     inkscape:pageshadow="2"
     inkscape:window-width="1146"
     inkscape:window-height="570"
     id="namedview3823"
     showgrid="false"
     showguides="false"
     inkscape:zoom="5.4339726"
     inkscape:cx="72.172786"
     inkscape:cy="14.509321"
     inkscape:window-x="0"
     inkscape:window-y="23"
     inkscape:window-maximized="0"
     inkscape:current-layer="Make2D::visible::lines"><inkscape:grid
       type="xygrid"
       id="grid4739" /></sodipodi:namedview><g
     id="Default"
     style="fill:#242d49;fill-opacity:1"
     transform="translate(-4)"><g
       id="g3791"
       style="fill:#242d49;fill-opacity:1"
       transform="matrix(1.0304571,0,0,1,-0.26253391,0)"><defs
         id="defs3784"><rect
           id="SVGID_1_"
           y="2"
           width="147.59"
           height="40"
           x="0" /></defs><clipPath
         id="SVGID_2_"><use
           xlink:href="#SVGID_1_"
           overflow="visible"
           id="use3786"
           style="overflow:visible"
           x="0"
           y="0"
           width="100%"
           height="100%" /></clipPath><path
         clip-path="url(#SVGID_2_)"
         d="m 12.929,36.729 c 1.841,1.497 3.658,2.143 6.031,2.143 62.496,0 124.992,0 187.488,0 0,-0.636 0,-1.273 0,-1.91 -62.259,0 -124.519,0 -186.778,0 -2.082,0.095 -3.999,-0.86 -5.513,-2.15 -1.514,-1.289 -2.624,-2.914 -3.083,-5.225 -0.458,-2.31 -0.265,-5.308 2.206,-3.157 1.772,1.808 3.609,2.323 6.045,2.325 2.747,-0.019 5.508,-1.107 5.557,-4.329 -0.027,-2.504 -1.604,-3.006 -3.545,-3.674 -1.016,-0.35 -4.549,-0.685 -4.551,-2.524 0.068,-1.737 1.223,-1.787 2.619,-1.764 1.666,-0.002 2.835,0.557 4.035,1.656 0.418,-0.647 0.837,-1.294 1.255,-1.942 -1.897,-1.834 -3.764,-2.094 -6.237,-1.802 -2.366,0.278 -4.356,1.524 -4.404,4.171 0.004,2.655 2.596,3.461 4.542,4.008 0.922,0.235 3.406,0.579 3.429,2.084 -0.034,1.648 -1.843,1.889 -3.087,1.838 -1.45,-0.06 -2.584,-0.544 -3.741,-1.371 -0.145,-0.127 -0.289,-0.254 -0.434,-0.382 -0.25,-0.217 -0.512,-0.422 -0.79,-0.602 -0.138,-0.089 -0.279,-0.173 -0.424,-0.25 -0.15,-0.078 -0.305,-0.149 -0.463,-0.209 -0.353,-0.133 -0.725,-0.217 -1.101,-0.231 -0.211,-0.008 -0.423,0.006 -0.632,0.042 -0.216,0.037 -0.429,0.097 -0.632,0.18 -0.199,0.083 -0.389,0.187 -0.566,0.31 -0.164,0.115 -0.317,0.246 -0.455,0.391 -0.125,0.13 -0.238,0.271 -0.34,0.42 -0.09,0.133 -0.171,0.272 -0.243,0.417 -0.125,0.251 -0.221,0.517 -0.293,0.788 -0.065,0.242 -0.112,0.488 -0.144,0.737 -0.03,0.236 -0.049,0.473 -0.056,0.71 -0.007,0.233 -0.005,0.467 0.004,0.699 0.01,0.231 0.027,0.461 0.05,0.691 0.022,0.228 0.052,0.454 0.087,0.68 0.108,0.692 0.27,1.377 0.494,2.04 0.261,0.777 0.607,1.526 1.034,2.225 0.205,0.335 0.429,0.658 0.669,0.969 0.235,0.303 0.485,0.595 0.748,0.873 0.259,0.273 0.531,0.534 0.813,0.782 0.133,0.115 0.269,0.231 0.406,0.343 z"
         id="path3789"
         style="fill:#242d49;fill-opacity:1"
         inkscape:connector-curvature="0" /></g></g><g
     id="Make2D::visible::lines"
     style="fill:#242d49;fill-opacity:1"><path
       d="m 140.445,17.043 c 0,-0.854 0,-1.708 0,-2.562 -0.25,-0.032 -0.499,-0.029 -0.748,-0.026 -2.307,0.155 -3.38,1.252 -4.374,3.175 0,-1.01 0,-2.02 0,-3.03 -0.889,0 -1.778,0 -2.667,0 0,4.625 0,9.251 0,13.877 0.958,0 1.917,0 2.876,0 0,-2.831 0,-5.661 0,-8.491 0.998,-2.376 2.544,-2.881 4.913,-2.943 z"
       id="path3794"
       style="fill:#242d49;fill-opacity:1"
       inkscape:connector-curvature="0" /><path
       d="m 123.212,28.767 c 2.532,-0.03 5.103,-1.124 6.239,-3.604 -0.83,-0.247 -1.657,-0.493 -2.485,-0.739 -0.753,1.747 -1.869,2.169 -3.648,2.19 -2.447,-0.041 -3.986,-1.911 -4.207,-4.216 3.711,0 7.42,0 11.131,0 0.053,-0.339 0.069,-0.679 0.08,-1.021 -0.049,-4.16 -2.979,-6.951 -7.084,-7.067 -4.195,0.106 -7.168,2.952 -7.228,7.194 0.06,4.232 2.98,7.154 7.202,7.263 z"
       id="path3796"
       style="fill:#242d49;fill-opacity:1"
       inkscape:connector-curvature="0" /><path
       d="m 119.032,20.535 c 0.201,-2.308 1.794,-4.029 4.18,-4.071 2.414,0.039 3.988,1.751 4.232,4.071 -2.803,0 -5.609,0 -8.412,0 z"
       id="path3798"
       style="fill:#ececec;fill-opacity:1"
       inkscape:connector-curvature="0" /><polygon
       points="118.253,28.478 118.253,26.469 109.951,26.469 118.173,16.376 118.173,14.601 106.988,14.601 106.988,16.608 114.97,16.608 106.694,26.701 106.694,28.478 "
       id="polygon3800"
       style="fill:#242d49;fill-opacity:1"
       transform="translate(-4)" /><path
       d="m 89.629,31.784 c 0,0.829 0,1.656 0,2.484 5.641,1.569 6.244,-4.35 7.563,-7.928 1.441,-3.913 2.883,-7.826 4.325,-11.739 -0.938,0 -1.875,0 -2.813,0 -1.256,3.631 -2.512,7.263 -3.768,10.894 -1.416,-3.631 -2.831,-7.262 -4.246,-10.894 -1.018,0 -2.035,0 -3.052,0 1.902,4.621 3.804,9.242 5.706,13.863 -0.28,0.824 -0.865,3.624 -2.309,3.506 -0.477,-0.011 -0.94,-0.092 -1.406,-0.186 z"
       id="path3802"
       style="fill:#242d49;fill-opacity:1"
       inkscape:connector-curvature="0" /><path
       d="m 81.27,8.955 c 0,4.153 0,8.304 0,12.456 0,0.965 -0.168,5.151 0.482,6.139 1.209,1.839 4.198,1.244 5.759,0.614 -0.142,-0.739 -0.285,-1.478 -0.427,-2.218 -0.59,0.282 -1.172,0.378 -1.816,0.379 -1.947,0.128 -1.121,-2.774 -1.121,-3.851 0,-1.502 0,-3.004 0,-4.507 0,-3.003 0,-6.008 0,-9.012 -0.959,0 -1.918,0 -2.877,0 z"
       id="path3804"
       style="fill:#242d49;fill-opacity:1"
       inkscape:connector-curvature="0" /><path
       d="m 65.058,24.376 c 0.05,2.792 2.182,4.343 4.809,4.391 2.279,-0.008 3.825,-0.648 5.281,-2.453 0.139,1.354 0.437,2.273 2.014,2.308 0.405,0.017 0.79,-0.067 1.181,-0.135 0,-0.793 0,-1.586 0,-2.379 -0.667,0.048 -0.719,-0.398 -0.71,-0.94 0,-2.468 0.729,-7.729 -2.062,-9.738 -2.864,-2.063 -7.209,-1.009 -9.778,0.759 0.324,0.647 0.648,1.295 0.971,1.943 3.418,-2.225 7.991,-2.596 7.991,2.362 -3.622,-1.226 -9.607,-1.092 -9.697,3.882 z"
       id="path3806"
       style="fill:#242d49;fill-opacity:1"
       inkscape:connector-curvature="0" /><path
       d="m 74.046,25.25 c -0.972,0.996 -1.966,1.355 -3.333,1.365 -1.782,-0.047 -2.916,-0.467 -2.923,-2.484 0.044,-1.969 1.275,-2.222 2.895,-2.41 1.443,-0.167 2.726,0.053 4.07,0.554 0.001,1.075 0.196,2.054 -0.709,2.975 z"
       id="path3808"
       style="fill:#ececec;fill-opacity:1"
       inkscape:connector-curvature="0" /><path
       d="m 63.94,27.871 c -0.204,-0.752 -0.409,-1.505 -0.614,-2.256 -0.637,0.368 -1.264,0.551 -2.003,0.565 -1.022,0.007 -1.422,-0.43 -1.494,-1.428 0,-2.623 0,-5.245 0,-7.868 1.014,0 2.029,0 3.043,0 0,-0.758 0,-1.514 0,-2.271 -1.015,0 -2.03,0 -3.043,0 0,-1.531 0,-3.061 0,-4.591 -0.959,0 -1.918,0 -2.877,0 0,1.531 0,3.061 0,4.591 -0.614,0 -1.228,0 -1.843,0 0,0.757 0,1.513 0,2.271 0.615,0 1.229,0 1.843,0 0,2.937 0,5.874 0,8.811 0.095,4.006 4.205,3.495 6.988,2.176 z"
       id="path3810"
       style="fill:#242d49;fill-opacity:1"
       inkscape:connector-curvature="0" /><path
       d="m 39.296,21.54 c 0.055,4.226 2.934,7.12 7.153,7.228 4.208,-0.107 7.095,-3.015 7.154,-7.228 -0.058,-4.214 -2.946,-7.121 -7.154,-7.229 -4.196,0.108 -7.092,3.028 -7.153,7.229 z"
       id="path3812"
       style="fill:#242d49;fill-opacity:1"
       inkscape:connector-curvature="0" /><path
       d="m 46.449,26.325 c -2.669,-0.063 -4.087,-2.324 -4.137,-4.758 0.052,-2.405 1.485,-4.741 4.137,-4.813 2.66,0.068 4.088,2.366 4.137,4.787 -0.049,2.418 -1.477,4.715 -4.137,4.784 z"
       id="path3814"
       style="fill:#ececec;fill-opacity:1"
       inkscape:connector-curvature="0" /><path
       d="m 26.248,25.946 c 1.234,2.075 2.685,2.795 5.055,2.821 4.103,-0.103 6.178,-3.522 6.233,-7.255 -0.068,-3.88 -2.57,-7.087 -6.639,-7.201 -2.297,0.022 -3.719,0.747 -4.989,2.686 0,-0.798 0,-1.598 0,-2.396 -0.846,0 -1.691,0 -2.537,0 0,6.508 0,13.015 0,19.522 0.959,0 1.918,0 2.877,0 0,-2.726 0,-5.451 0,-8.177 z"
       id="path3816"
       style="fill:#242d49;fill-opacity:1"
       inkscape:connector-curvature="0" /><path
       stroke-miterlimit="10"
       d="m 34.519,21.512 c -0.034,2.445 -1.548,4.716 -4.19,4.813 -2.286,-0.053 -3.242,-1.133 -4.082,-3.083 0,-1.234 0,-2.469 0,-3.704 0.505,-1.595 2.237,-2.749 3.865,-2.786 2.686,0.073 4.357,2.198 4.407,4.76 z"
       id="path3818"
       style="fill:#ececec;fill-opacity:1;stroke:#ffffff;stroke-width:0;stroke-miterlimit:10;stroke-dasharray:none;stroke-opacity:0.95"
       inkscape:connector-curvature="0" /></g></svg>
