<svg version="1.1" xmlns="http://www.w3.org/2000/svg" xmlns:xlink="http://www.w3.org/1999/xlink" x="0px" y="0px"
	 width="147.59px" height="40px" viewBox="0 0 147.59 40" enable-background="new 0 0 147.59 40" xml:space="preserve">
<g id="Default">
	<g>
		<defs>
			<rect id="SVGID_1_" width="147.59" height="40"/>
		</defs>
		<clipPath id="SVGID_2_">
			<use xlink:href="#SVGID_1_"  overflow="visible"/>
		</clipPath>
		<path clip-path="url(#SVGID_2_)" d="M12.929,34.729c1.841,1.497,3.658,2.143,6.031,2.143c62.496,0,124.992,0,187.488,0
			c0-0.636,0-1.273,0-1.91c-62.259,0-124.519,0-186.778,0c-2.082,0.095-3.999-0.86-5.513-2.15c-1.514-1.289-2.624-2.914-3.083-5.225
			c-0.458-2.31-0.265-5.308,2.206-3.157c1.772,1.808,3.609,2.323,6.045,2.325c2.747-0.019,5.508-1.107,5.557-4.329
			c-0.027-2.504-1.604-3.006-3.545-3.674c-1.016-0.35-4.549-0.685-4.551-2.524c0.068-1.737,1.223-1.787,2.619-1.764
			c1.666-0.002,2.835,0.557,4.035,1.656c0.418-0.647,0.837-1.294,1.255-1.942c-1.897-1.834-3.764-2.094-6.237-1.802
			c-2.366,0.278-4.356,1.524-4.404,4.171c0.004,2.655,2.596,3.461,4.542,4.008c0.922,0.235,3.406,0.579,3.429,2.084
			c-0.034,1.648-1.843,1.889-3.087,1.838c-1.45-0.06-2.584-0.544-3.741-1.371c-0.145-0.127-0.289-0.254-0.434-0.382
			c-0.25-0.217-0.512-0.422-0.79-0.602c-0.138-0.089-0.279-0.173-0.424-0.25c-0.15-0.078-0.305-0.149-0.463-0.209
			c-0.353-0.133-0.725-0.217-1.101-0.231c-0.211-0.008-0.423,0.006-0.632,0.042c-0.216,0.037-0.429,0.097-0.632,0.18
			c-0.199,0.083-0.389,0.187-0.566,0.31c-0.164,0.115-0.317,0.246-0.455,0.391c-0.125,0.13-0.238,0.271-0.34,0.42
			c-0.09,0.133-0.171,0.272-0.243,0.417c-0.125,0.251-0.221,0.517-0.293,0.788c-0.065,0.242-0.112,0.488-0.144,0.737
			c-0.03,0.236-0.049,0.473-0.056,0.71c-0.007,0.233-0.005,0.467,0.004,0.699c0.01,0.231,0.027,0.461,0.05,0.691
			c0.022,0.228,0.052,0.454,0.087,0.68c0.108,0.692,0.27,1.377,0.494,2.04c0.261,0.777,0.607,1.526,1.034,2.225
			c0.205,0.335,0.429,0.658,0.669,0.969c0.235,0.303,0.485,0.595,0.748,0.873c0.259,0.273,0.531,0.534,0.813,0.782
			C12.656,34.501,12.792,34.617,12.929,34.729z"/>
	</g>
</g>
<g id="Make2D::visible::lines">
	<path d="M144.445,15.043c0-0.854,0-1.708,0-2.562c-0.25-0.032-0.499-0.029-0.748-0.026c-2.307,0.155-3.38,1.252-4.374,3.175
		c0-1.01,0-2.02,0-3.03c-0.889,0-1.778,0-2.667,0c0,4.625,0,9.251,0,13.877c0.958,0,1.917,0,2.876,0c0-2.831,0-5.661,0-8.491
		C140.53,15.61,142.076,15.105,144.445,15.043z"/>
	<path d="M127.212,26.767c2.532-0.03,5.103-1.124,6.239-3.604c-0.83-0.247-1.657-0.493-2.485-0.739
		c-0.753,1.747-1.869,2.169-3.648,2.19c-2.447-0.041-3.986-1.911-4.207-4.216c3.711,0,7.42,0,11.131,0
		c0.053-0.339,0.069-0.679,0.08-1.021c-0.049-4.16-2.979-6.951-7.084-7.067c-4.195,0.106-7.168,2.952-7.228,7.194
		C120.07,23.736,122.99,26.658,127.212,26.767z"/>
	<path fill="#FFFFFF" d="M123.032,18.535c0.201-2.308,1.794-4.029,4.18-4.071c2.414,0.039,3.988,1.751,4.232,4.071
		C128.641,18.535,125.835,18.535,123.032,18.535z"/>
	<polygon points="106.694,24.701 106.694,26.478 118.253,26.478 118.253,24.469 109.951,24.469 118.173,14.376 118.173,12.601
		106.988,12.601 106.988,14.608 114.97,14.608 	"/>
	<path d="M93.629,29.784c0,0.829,0,1.656,0,2.484c5.641,1.569,6.244-4.35,7.563-7.928c1.441-3.913,2.883-7.826,4.325-11.739
		c-0.938,0-1.875,0-2.813,0c-1.256,3.631-2.512,7.263-3.768,10.894c-1.416-3.631-2.831-7.262-4.246-10.894c-1.018,0-2.035,0-3.052,0
		c1.902,4.621,3.804,9.242,5.706,13.863c-0.28,0.824-0.865,3.624-2.309,3.506C94.558,29.959,94.095,29.878,93.629,29.784z"/>
	<path d="M85.27,6.955c0,4.153,0,8.304,0,12.456c0,0.965-0.168,5.151,0.482,6.139c1.209,1.839,4.198,1.244,5.759,0.614
		c-0.142-0.739-0.285-1.478-0.427-2.218c-0.59,0.282-1.172,0.378-1.816,0.379c-1.947,0.128-1.121-2.774-1.121-3.851
		c0-1.502,0-3.004,0-4.507c0-3.003,0-6.008,0-9.012C87.188,6.955,86.229,6.955,85.27,6.955z"/>
	<path d="M69.058,22.376c0.05,2.792,2.182,4.343,4.809,4.391c2.279-0.008,3.825-0.648,5.281-2.453
		c0.139,1.354,0.437,2.273,2.014,2.308c0.405,0.017,0.79-0.067,1.181-0.135c0-0.793,0-1.586,0-2.379
		c-0.667,0.048-0.719-0.398-0.71-0.94c0-2.468,0.729-7.729-2.062-9.738c-2.864-2.063-7.209-1.009-9.778,0.759
		c0.324,0.647,0.648,1.295,0.971,1.943c3.418-2.225,7.991-2.596,7.991,2.362C75.133,17.268,69.148,17.402,69.058,22.376z"/>
	<path fill="#FFFFFF" d="M78.046,23.25c-0.972,0.996-1.966,1.355-3.333,1.365c-1.782-0.047-2.916-0.467-2.923-2.484
		c0.044-1.969,1.275-2.222,2.895-2.41c1.443-0.167,2.726,0.053,4.07,0.554C78.756,21.35,78.951,22.329,78.046,23.25z"/>
	<path d="M67.94,25.871c-0.204-0.752-0.409-1.505-0.614-2.256c-0.637,0.368-1.264,0.551-2.003,0.565
		c-1.022,0.007-1.422-0.43-1.494-1.428c0-2.623,0-5.245,0-7.868c1.014,0,2.029,0,3.043,0c0-0.758,0-1.514,0-2.271
		c-1.015,0-2.03,0-3.043,0c0-1.531,0-3.061,0-4.591c-0.959,0-1.918,0-2.877,0c0,1.531,0,3.061,0,4.591c-0.614,0-1.228,0-1.843,0
		c0,0.757,0,1.513,0,2.271c0.615,0,1.229,0,1.843,0c0,2.937,0,5.874,0,8.811C61.047,27.701,65.157,27.19,67.94,25.871z"/>
	<path d="M43.296,19.54c0.055,4.226,2.934,7.12,7.153,7.228c4.208-0.107,7.095-3.015,7.154-7.228
		c-0.058-4.214-2.946-7.121-7.154-7.229C46.253,12.419,43.357,15.339,43.296,19.54z"/>
	<path fill="#FFFFFF" d="M50.449,24.325c-2.669-0.063-4.087-2.324-4.137-4.758c0.052-2.405,1.485-4.741,4.137-4.813
		c2.66,0.068,4.088,2.366,4.137,4.787C54.537,21.959,53.109,24.256,50.449,24.325z"/>
	<path d="M30.248,23.946c1.234,2.075,2.685,2.795,5.055,2.821c4.103-0.103,6.178-3.522,6.233-7.255
		c-0.068-3.88-2.57-7.087-6.639-7.201c-2.297,0.022-3.719,0.747-4.989,2.686c0-0.798,0-1.598,0-2.396c-0.846,0-1.691,0-2.537,0
		c0,6.508,0,13.015,0,19.522c0.959,0,1.918,0,2.877,0C30.248,29.397,30.248,26.672,30.248,23.946z"/>
	<path fill="#FFFFFF" stroke="#FFFFFF" stroke-width="0.1" stroke-miterlimit="10" d="M38.519,19.512
		c-0.034,2.445-1.548,4.716-4.19,4.813c-2.286-0.053-3.242-1.133-4.082-3.083c0-1.234,0-2.469,0-3.704
		c0.505-1.595,2.237-2.749,3.865-2.786C36.798,14.825,38.469,16.95,38.519,19.512z"/>
</g>
</svg>
